<?xml version="1.0" encoding="UTF-8"?>
<svg version="1.1" xmlns="http://www.w3.org/2000/svg" width="512" height="512">
<path d="M0 0 C1.01790619 0.00215515 2.03581238 0.0043103 3.08456421 0.00653076 C17.69363523 0.05620146 32.02575853 0.30709809 46.375 3.3125 C47.34985352 3.51117676 48.32470703 3.70985352 49.32910156 3.91455078 C108.89482498 16.37463238 165.24866419 48.2648637 202.375 97.3125 C202.79023926 97.85132812 203.20547852 98.39015625 203.63330078 98.9453125 C228.13415115 130.81517547 244.62642134 167.36831241 252.6875 206.75 C252.83485596 207.46889404 252.98221191 208.18778809 253.1340332 208.9284668 C256.10789088 224.57475609 256.74800362 240.04818046 256.6875 255.9375 C256.68534485 256.95540619 256.6831897 257.97331238 256.68096924 259.02206421 C256.63129854 273.63113523 256.38040191 287.96325853 253.375 302.3125 C253.07698486 303.77478027 253.07698486 303.77478027 252.77294922 305.26660156 C242.52138226 354.27446698 220.18217348 398.27864199 185.375 434.3125 C184.77606934 434.93334473 184.17713867 435.55418945 183.56005859 436.19384766 C175.89623497 444.09500259 168.15501606 451.64016955 159.375 458.3125 C158.83472168 458.72918945 158.29444336 459.14587891 157.73779297 459.57519531 C125.8687531 484.07334707 89.31685217 500.56439938 49.9375 508.625 C49.21860596 508.77235596 48.49971191 508.91971191 47.7590332 509.0715332 C33.08339502 511.86090125 18.55831162 512.66142619 3.64770508 512.62817383 C0.70811513 512.6250221 -2.2304558 512.64854926 -5.16992188 512.67382812 C-18.54306192 512.71848737 -31.43916711 511.51301542 -44.625 509.3125 C-46.33055054 509.03031616 -46.33055054 509.03031616 -48.07055664 508.74243164 C-50.6662622 508.27617402 -53.23774939 507.7574418 -55.8125 507.1875 C-57.20142456 506.88054199 -57.20142456 506.88054199 -58.6184082 506.56738281 C-103.71300222 496.08183329 -144.40193368 473.34639441 -177.625 441.3125 C-178.58889648 440.38945068 -178.58889648 440.38945068 -179.57226562 439.44775391 C-188.74836539 430.62136647 -197.09816554 421.58141996 -204.625 411.3125 C-205.26211914 410.45857666 -205.26211914 410.45857666 -205.91210938 409.58740234 C-212.42768015 400.84658179 -218.26088547 391.80163672 -223.625 382.3125 C-224.0271875 381.60528809 -224.429375 380.89807617 -224.84375 380.16943359 C-237.8691741 357.03404164 -246.61801461 331.86287591 -251.9375 305.875 C-252.08485596 305.15610596 -252.23221191 304.43721191 -252.3840332 303.6965332 C-255.35789088 288.05024391 -255.99800362 272.57681954 -255.9375 256.6875 C-255.93534485 255.66959381 -255.9331897 254.65168762 -255.93096924 253.60293579 C-255.88129854 238.99386477 -255.63040191 224.66174147 -252.625 210.3125 C-252.42632324 209.33764648 -252.22764648 208.36279297 -252.02294922 207.35839844 C-241.90232806 158.9765226 -219.9858123 114.98821731 -185.625 79.3125 C-184.99287598 78.65314453 -184.36075195 77.99378906 -183.70947266 77.31445312 C-174.56502521 67.82619695 -165.26765991 59.0862956 -154.625 51.3125 C-153.47394983 50.45443848 -152.32290823 49.59636549 -151.171875 48.73828125 C-142.98224019 42.70072604 -134.47961724 37.31792698 -125.625 32.3125 C-124.91778809 31.9103125 -124.21057617 31.508125 -123.48193359 31.09375 C-100.34654164 18.0683259 -75.17537591 9.31948539 -49.1875 4 C-48.46860596 3.85264404 -47.74971191 3.70528809 -47.0090332 3.5534668 C-31.36274391 0.57960912 -15.88931954 -0.06050362 0 0 Z M13.375 163.3125 C2.36484744 177.70886855 -0.3881324 191.63622388 0.375 209.3125 C0.68596725 210.98348422 1.01472238 212.65144945 1.375 214.3125 C-41.22179732 209.65746077 -77.48966995 195.43154331 -108.625 165.3125 C-109.43195313 164.53390625 -110.23890625 163.7553125 -111.0703125 162.953125 C-113.91523402 160.15918773 -116.4064815 157.64027775 -118.625 154.3125 C-119.285 154.3125 -119.945 154.3125 -120.625 154.3125 C-127.89583351 170.2139794 -129.67590924 184.40372138 -124.625 201.3125 C-120.15441116 213.00480926 -112.97781574 223.06310443 -102.625 230.3125 C-109.05869445 230.74141296 -114.49249693 229.1531488 -120.625 227.3125 C-122.02032237 226.91486927 -123.41606906 226.51871988 -124.8125 226.125 C-125.740625 225.856875 -126.66875 225.58875 -127.625 225.3125 C-128.80701295 240.08766186 -121.65457728 253.61898974 -112.375 264.625 C-103.90886736 273.56386086 -93.16387591 278.46620803 -81.625 282.3125 C-84.93643006 283.03663373 -88.10344221 283.47604255 -91.48828125 283.62890625 C-92.81762695 283.69174805 -92.81762695 283.69174805 -94.17382812 283.75585938 C-95.08583984 283.79517578 -95.99785156 283.83449219 -96.9375 283.875 C-97.86884766 283.91818359 -98.80019531 283.96136719 -99.75976562 284.00585938 C-102.04804454 284.11147225 -104.33642372 284.21357752 -106.625 284.3125 C-104.15778315 291.20612265 -101.32733645 296.6918249 -96.625 302.3125 C-95.86445313 303.28445313 -95.10390625 304.25640625 -94.3203125 305.2578125 C-85.90504098 315.31773687 -72.43534641 321.46894461 -59.625 323.3125 C-57.26036316 323.44338396 -54.9953209 323.41336472 -52.625 323.3125 C-52.625 323.9725 -52.625 324.6325 -52.625 325.3125 C-53.1509375 325.55742187 -53.676875 325.80234375 -54.21875 326.0546875 C-56.66918664 327.33559756 -58.96458923 328.79248677 -61.29174805 330.2824707 C-84.86373031 345.13385545 -109.19101142 348.91961819 -136.625 349.3125 C-107.420637 371.91988781 -63.19719882 377.6269096 -27.65869141 373.43334961 C14.24620818 367.6057909 53.76117626 347.47079078 79.77685547 313.48095703 C99.81926372 286.65556649 116.48014067 252.8700282 116.421875 218.6875 C116.43190552 216.95234131 116.43190552 216.95234131 116.44213867 215.18212891 C116.43911292 212.90262602 116.39184037 210.62262716 116.29418945 208.34521484 C116.27218833 200.55919594 116.27218833 200.55919594 119.46142578 196.95385742 C122.02015471 194.92184124 124.64881724 193.11102516 127.375 191.3125 C134.14132783 185.54047337 139.88359606 178.98768396 144.375 171.3125 C143.86195313 171.48265625 143.34890625 171.6528125 142.8203125 171.828125 C136.92350382 173.69445502 130.96962776 175.15202502 124.9375 176.5 C124.14424316 176.67885742 123.35098633 176.85771484 122.53369141 177.04199219 C119.42631442 177.72482979 116.56646745 178.3125 113.375 178.3125 C114.01566406 177.8278125 114.65632812 177.343125 115.31640625 176.84375 C125.09176795 169.26820889 134.00292147 160.57460375 137.375 148.3125 C133.07562923 149.67019603 129.0397545 151.3223996 124.9375 153.1875 C105.99650438 161.50080612 105.99650438 161.50080612 100.125 159.57421875 C98.375 158.3125 98.375 158.3125 95.5 155.625 C84.74691297 146.23044003 69.99227722 141.57530291 55.8671875 141.96484375 C38.8558541 143.65836576 24.8314439 150.54954486 13.375 163.3125 Z " fill="#000000" transform="translate(255.625,-0.3125)"/>
</svg>
